<?xml version="1.0" standalone="no"?>
<!DOCTYPE svg PUBLIC "-//W3C//DTD SVG 20010904//EN"
 "http://www.w3.org/TR/2001/REC-SVG-20010904/DTD/svg10.dtd">
<svg version="1.0" xmlns="http://www.w3.org/2000/svg"
 width="300.000000pt" height="300.000000pt" viewBox="0 0 300.000000 300.000000"
 preserveAspectRatio="xMidYMid meet">
<metadata>
Created by potrace 1.10, written by Peter Selinger 2001-2011
</metadata>
<g transform="translate(0.000000,300.000000) scale(0.100000,-0.100000)"
fill="#048DBB" stroke="none">
<path d="M1537 2720 c-4 -14 -20 -97 -37 -185 -16 -88 -32 -169 -35 -180 -4
-18 -17 -23 -85 -33 -177 -25 -328 -102 -460 -232 -131 -129 -215 -287 -243
-457 l-13 -78 -110 -22 c-60 -12 -148 -27 -196 -34 -49 -7 -88 -15 -88 -18 0
-3 80 -19 178 -35 217 -35 222 -37 222 -74 0 -55 41 -188 85 -277 124 -251
376 -430 646 -461 50 -6 60 -10 64 -28 2 -11 18 -93 35 -181 18 -88 34 -171
37 -185 3 -15 21 57 47 185 l41 209 75 21 c135 38 263 110 345 194 44 46 40
54 -8 17 -46 -35 -171 -93 -247 -113 -49 -14 -100 -18 -205 -17 -124 1 -149 4
-220 27 -130 43 -219 99 -316 196 -71 72 -94 104 -133 182 -64 130 -80 199
-80 339 0 213 66 373 219 526 76 77 105 98 185 137 138 68 199 82 360 82 114
0 147 -4 210 -23 73 -23 171 -69 240 -113 l35 -23 -30 33 c-82 89 -228 174
-361 209 l-69 17 -41 210 c-27 135 -44 201 -47 185z m36 -311 c10 -49 26 -92
37 -104 28 -30 25 -35 -21 -35 -202 0 -418 -91 -562 -237 -153 -156 -227 -335
-227 -547 0 -238 79 -420 253 -583 66 -62 190 -143 218 -143 8 0 19 -4 24 -9
16 -16 158 -49 237 -56 102 -9 105 -11 80 -38 -13 -14 -27 -52 -37 -102 -9
-44 -18 -82 -20 -84 -10 -10 -35 11 -35 28 0 11 -5 43 -11 71 -16 73 -42 93
-140 108 -271 43 -505 233 -609 495 -27 68 -59 183 -62 224 -2 22 -32 41 -83
54 -96 22 -105 40 -26 51 71 11 109 38 116 86 17 108 32 155 87 269 28 58 47
87 115 172 45 55 164 144 246 184 77 37 210 77 257 77 25 0 68 23 82 44 4 6
13 36 19 66 16 74 17 84 18 93 1 5 7 7 14 5 6 -3 20 -42 30 -89z"/>
<path d="M1510 2129 c-78 -9 -147 -31 -216 -70 -54 -30 -148 -108 -140 -116 2
-3 24 7 48 20 131 76 323 94 471 43 134 -45 222 -114 298 -229 143 -219 109
-504 -82 -693 l-59 -58 0 247 c0 136 -2 247 -3 247 -2 0 -59 -56 -127 -124
l-123 -125 2 -158 c1 -87 -1 -166 -4 -176 -4 -9 -18 -17 -31 -17 l-24 0 0 278
0 277 -125 125 -125 125 0 -378 c0 -303 -3 -377 -13 -377 -7 0 -35 14 -61 31
-27 16 -50 28 -53 26 -6 -7 94 -93 141 -121 190 -111 450 -105 637 15 140 91
261 261 290 410 9 46 17 62 33 68 12 5 99 23 194 42 94 18 172 36 172 39 0 3
-78 21 -172 39 -95 19 -183 38 -195 42 -15 6 -23 20 -28 51 -18 110 -105 268
-190 347 -142 131 -324 191 -515 170z m284 -64 c38 -15 89 -41 115 -58 44 -30
140 -121 171 -162 43 -57 100 -190 105 -245 6 -52 37 -70 154 -90 90 -16 94
-41 8 -54 -74 -12 -134 -37 -145 -59 -6 -12 -20 -52 -31 -89 -29 -98 -100
-213 -171 -281 -72 -67 -114 -95 -190 -125 -122 -47 -196 -57 -306 -40 -87 14
-222 75 -214 98 3 8 6 163 8 343 1 185 6 327 11 325 13 -4 122 -108 153 -146
l27 -32 0 -252 c1 -207 4 -256 16 -275 20 -29 61 -30 86 -1 17 19 19 39 19
182 l0 160 85 84 c46 46 89 81 95 77 7 -4 10 -69 10 -178 -1 -95 -1 -178 -1
-184 1 -7 10 -22 21 -33 20 -20 22 -20 51 -3 45 26 128 129 160 198 46 98 62
177 56 280 -6 100 -6 98 -31 174 -40 116 -103 199 -212 277 -105 75 -214 111
-352 115 -30 1 -48 5 -41 10 7 4 16 6 20 3 4 -2 11 1 15 7 5 8 42 10 123 7 96
-4 128 -10 185 -33z"/>
</g>
</svg>
